# xmcd
#
# Track frame offsets:
#	150
#	13812
#	23466
#	36178
#	50376
#
# Disc length: 909 seconds
#
# Revision: 0
# Processed by: cddbd v1.5.1PL0 Copyright (c) Steve Scherf et al.
# Submitted via: dBpowerAMP V4.0
#
DISCID=31038b05
DTITLE=Dan Bull - Dan Bull
DYEAR=2005
DGENRE=Alternative
TTITLE0=Mr. Booth
TTITLE1=Getting Caught
TTITLE2=In Your Room
TTITLE3=I Love You
TTITLE4=Ripped
EXTD=
EXTT0=
EXTT1=
EXTT2=
EXTT3=
EXTT4=
PLAYORDER=
